<?xml version="1.0" encoding="UTF-8"?>
<svg id="Layer_1" data-name="Layer 1" xmlns="http://www.w3.org/2000/svg" xmlns:xlink="http://www.w3.org/1999/xlink" viewBox="0 0 427.42 427.42">
  <defs>
    <style>
      .cls-1 {
        fill: none;
        stroke: url(#linear-gradient);
        stroke-linecap: round;
        stroke-linejoin: round;
        stroke-width: 12px;
      }

      .cls-2 {
        fill: url(#linear-gradient-2);
        stroke-width: 0px;
      }
    </style>
    <linearGradient id="linear-gradient" x1="0" y1="213.71" x2="427.42" y2="213.71" gradientUnits="userSpaceOnUse">
      <stop offset="0" stop-color="#bc539f"/>
      <stop offset="1" stop-color="#4f64ae"/>
    </linearGradient>
    <linearGradient id="linear-gradient-2" x1="34.53" y1="227.83" x2="408.1" y2="227.83" gradientUnits="userSpaceOnUse">
      <stop offset="0" stop-color="#e6549e"/>
      <stop offset="1" stop-color="#53a2d9"/>
    </linearGradient>
  </defs>
  <circle class="cls-1" cx="213.71" cy="213.71" r="207.71"/>
  <path class="cls-2" d="m408.03,216.9h0c.73-6.73-4.54-12.6-11.3-12.6h-59.91c-6.28,0-11.37-5.09-11.37-11.37V58.01c0-6.28-5.09-11.37-11.37-11.37h-1.75c-6.28,0-11.37,5.09-11.37,11.37v57.42c0,6.28-5.09,11.37-11.37,11.37H45.9c-6.28,0-11.37,5.09-11.37,11.37v1.75c0,6.28,5.09,11.37,11.37,11.37h243.7c6.28,0,11.37,5.09,11.37,11.37v30.28c0,6.28-5.09,11.37-11.37,11.37h-121.69c-5.8,0-10.67,4.37-11.3,10.14h0c-.73,6.73,4.54,12.6,11.3,12.6h36.57c6.28,0,11.37,5.09,11.37,11.37v23.52c0,6.28-5.09,11.37-11.37,11.37h-36.73c-6.28,0-11.37,5.09-11.37,11.37v1.06c0,6.28,5.09,11.37,11.37,11.37h36.73c6.28,0,11.37,5.09,11.37,11.37v6.89c0,6.28-5.09,11.37-11.37,11.37h-82.71c-6.28,0-11.37-5.09-11.37-11.37v-132.34c0-6.28-5.09-11.37-11.37-11.37h0c-6.28,0-11.37,5.09-11.37,11.37v143.71s-.08,0-.08,0v5.64c0,6.28,5.09,11.37,11.37,11.37h105.53c6.28,0,11.37,5.09,11.37,11.37v42.56c0,6.28,5.09,11.37,11.37,11.37h2.92c6.28,0,11.37-5.09,11.37-11.37v-42.56c0-6.28,5.09-11.37,11.37-11.37h79.58v-.14h.67v-86.22c0-6.28-5.09-11.37-11.37-11.37h-1.75c-6.28,0-11.37,5.09-11.37,11.37v57.98c0,6.28-5.09,11.37-11.37,11.37h-44.39c-6.28,0-11.37-5.09-11.37-11.37v-6.89c0-6.28,5.09-11.37,11.37-11.37h8.75c6.28,0,11.37-5.09,11.37-11.37v-1.06c0-6.28-5.09-11.37-11.37-11.37h-8.75c-6.28,0-11.37-5.09-11.37-11.37v-23.52c0-6.28,5.09-11.37,11.37-11.37h143.87c5.8,0,10.67-4.37,11.3-10.14Z"/>
</svg>